<svg width="72" height="71" viewBox="0 0 72 71" fill="none" xmlns="http://www.w3.org/2000/svg">
<path d="M7.05069 22.2212C3.16179 22.2212 0 25.3461 0 29.1896V64.0316C0 67.8751 3.16179 71 7.05069 71H42.3041C46.193 71 49.3548 67.8751 49.3548 64.0316V29.1896C49.3548 25.3461 46.193 22.2212 42.3041 22.2212H7.05069ZM14.1014 29.1896V36.158H21.1521V29.1896H28.2028V36.158H35.2535V29.1896H42.3041V36.158H35.2535V43.1264H42.3041V50.0948H35.2535V57.0632H42.3041V64.0316H35.2535V57.0632H28.2028V64.0316H21.1521V57.0632H14.1014V64.0316H7.05069V57.0632H14.1014V50.0948H7.05069V43.1264H14.1014V36.158H7.05069V29.1896H14.1014ZM21.1521 43.1264H28.2028V36.158H21.1521V43.1264ZM21.1521 50.0948V43.1264H14.1014V50.0948H21.1521ZM28.2028 50.0948H21.1521V57.0632H28.2028V50.0948ZM28.2028 50.0948H35.2535V43.1264H28.2028V50.0948Z" fill="#111130"/>
<path d="M35.6132 0.300003C32.2733 0.300003 29.5579 2.81449 29.5579 5.90723V33.9433C29.5579 37.0361 32.2733 39.5506 35.6132 39.5506H65.8897C69.2296 39.5506 71.945 37.0361 71.945 33.9433V5.90723C71.945 2.81449 69.2296 0.300003 65.8897 0.300003H35.6132ZM41.6685 5.90723V11.5145H47.7238V5.90723H53.7791V11.5145H59.8344V5.90723H65.8897V11.5145H59.8344V17.1217H65.8897V22.7289H59.8344V28.3361H65.8897V33.9433H59.8344V28.3361H53.7791V33.9433H47.7238V28.3361H41.6685V33.9433H35.6132V28.3361H41.6685V22.7289H35.6132V17.1217H41.6685V11.5145H35.6132V5.90723H41.6685ZM47.7238 17.1217H53.7791V11.5145H47.7238V17.1217ZM47.7238 22.7289V17.1217H41.6685V22.7289H47.7238ZM53.7791 22.7289H47.7238V28.3361H53.7791V22.7289ZM53.7791 22.7289H59.8344V17.1217H53.7791V22.7289Z" fill="white"/>
</svg>
